HIERARCHY
ROOT root
{
	OFFSET 0.000000 0.000000 0.000000
	CHANNELS 6 Xposition Yposition Zposition Zrotation Yrotation Xrotation
	JOINT lhip
	{
		OFFSET 0.058581 -0.082280 -0.017664
		CHANNELS 3 Zrotation Yrotation Xrotation
		JOINT lknee
		{
			OFFSET 0.043451 -0.386469 0.008037
			CHANNELS 3 Zrotation Yrotation Xrotation
			JOINT lankle
			{
				OFFSET -0.014790 -0.426874 -0.037428
				CHANNELS 3 Zrotation Yrotation Xrotation
				JOINT ltoe
				{
					OFFSET 0.041054 -0.060286 0.122042
					CHANNELS 3 Zrotation Yrotation Xrotation
					End Site
					{
						OFFSET 0.000000 0.000000 0.000000
					}
				}
			}
		}
	}
	JOINT rhip
	{
		OFFSET -0.060310 -0.090513 -0.013543
		CHANNELS 3 Zrotation Yrotation Xrotation
		JOINT rknee
		{
			OFFSET -0.043257 -0.383688 -0.004843
			CHANNELS 3 Zrotation Yrotation Xrotation
			JOINT rankle
			{
				OFFSET 0.019056 -0.420046 -0.034562
				CHANNELS 3 Zrotation Yrotation Xrotation
				JOINT rtoe
				{
					OFFSET -0.034840 -0.062106 0.130323
					CHANNELS 3 Zrotation Yrotation Xrotation
					End Site
					{
						OFFSET 0.000000 0.000000 0.000000
					}
				}
			}
		}
	}
	JOINT lowerback
	{
		OFFSET 0.004439 0.124404 -0.038385
		CHANNELS 3 Zrotation Yrotation Xrotation
		JOINT upperback
		{
			OFFSET 0.004488 0.137956 0.026820
			CHANNELS 3 Zrotation Yrotation Xrotation
			JOINT chest
			{
				OFFSET -0.002265 0.056032 0.002855
				CHANNELS 3 Zrotation Yrotation Xrotation
				JOINT lowerneck
				{
					OFFSET -0.013390 0.211636 -0.033468
					CHANNELS 3 Zrotation Yrotation Xrotation
					JOINT upperneck
					{
						OFFSET 0.010113 0.088937 0.050410
						CHANNELS 3 Zrotation Yrotation Xrotation
						End Site
						{
							OFFSET 0.000000 0.000000 0.000000
						}
					}
				}
				JOINT lclavicle
				{
					OFFSET 0.071702 0.114000 -0.018898
					CHANNELS 3 Zrotation Yrotation Xrotation
					JOINT lshoulder
					{
						OFFSET 0.122921 0.045205 -0.019046
						CHANNELS 3 Zrotation Yrotation Xrotation
						JOINT lelbow
						{
							OFFSET 0.255332 -0.015649 -0.022946
							CHANNELS 3 Zrotation Yrotation Xrotation
							JOINT lwrist
							{
								OFFSET 0.265709 0.012698 -0.007375
								CHANNELS 3 Zrotation Yrotation Xrotation
								End Site
								{
									OFFSET 0.000000 0.000000 0.000000
								}
							}
						}
					}
				}
				JOINT rclavicle
				{
					OFFSET -0.082954 0.112472 -0.023707
					CHANNELS 3 Zrotation Yrotation Xrotation
					JOINT rshoulder
					{
						OFFSET -0.113228 0.046853 -0.008472
						CHANNELS 3 Zrotation Yrotation Xrotation
						JOINT relbow
						{
							OFFSET -0.260127 -0.014369 -0.031269
							CHANNELS 3 Zrotation Yrotation Xrotation
							JOINT rwrist
							{
								OFFSET -0.269108 0.006794 -0.006027
								CHANNELS 3 Zrotation Yrotation Xrotation
								End Site
								{
									OFFSET 0.000000 0.000000 0.000000
								}
							}
						}
					}
				}
			}
		}
	}
}
MOTION
Frames: 15
Frame Time: 0.033333
1.051131 0.740117 0.842789 -83.390935 -1.135293 110.747976 6.563946 -2.788363 -47.399924 -12.279706 9.224060 72.390226 5.702047 19.351819 -29.970404 0.000000 -0.000000 0.000000 0.423574 -0.991289 -40.893417 4.736799 -5.829306 68.916253 -4.457400 -21.373808 -25.512258 0.000000 -0.000000 0.000000 -1.920503 1.552722 46.285402 -2.175602 -4.136713 -9.921356 5.036860 2.330023 2.602853 -5.045597 -3.268424 -31.041869 11.268988 -8.398541 -21.820114 4.893368 -39.203078 -16.691968 9.247035 -36.204740 -24.532788 15.603821 -27.720008 -34.059043 24.975474 -19.814934 -17.968669 -2.168119 42.654078 -7.283610 -1.858003 23.997840 -27.579443 -18.749594 42.058110 -23.999837 -29.223798 8.105958 -8.383463 
0.999897 0.738485 0.870842 -83.467741 -1.637711 110.537356 4.978577 -2.989980 -39.576146 -12.144813 6.819703 65.494268 5.986421 18.970146 -23.757717 0.000000 -0.000000 0.000000 0.814681 -1.873061 -33.493445 5.652502 -3.740316 61.621819 -3.720603 -21.499981 -20.048975 0.000000 -0.000000 0.000000 -1.919451 2.515077 39.986361 -1.538565 -4.848719 -9.452923 5.703215 1.793283 3.827153 -6.603211 -2.402367 -29.538084 9.944167 -9.941578 -23.734075 15.353968 -36.903794 -21.453125 19.177249 -33.865913 -35.670793 22.129441 -33.235078 -39.680028 17.728614 -21.203374 -15.619374 -14.767616 41.782215 -13.917178 -9.059517 23.072840 -34.610072 -26.773485 45.910439 -32.521976 -23.928506 7.647950 -10.177940 
0.934268 0.735162 0.907360 -83.751776 -1.809199 110.923289 4.036265 -1.665592 -29.975771 -12.110163 3.877231 54.784828 4.667113 16.783502 -15.495155 0.000000 -0.000000 0.000000 0.878112 -3.975949 -24.540008 5.722588 -2.662412 50.541159 -2.733643 -19.695945 -11.140471 0.000000 -0.000000 0.000000 -1.681142 2.660977 32.772986 -2.101679 -4.847405 -9.541400 5.345566 2.484344 3.267947 -7.554625 -1.396344 -22.077224 10.599977 -10.809051 -27.450319 23.233185 -36.512285 -24.957525 26.004443 -30.416313 -41.979555 24.340116 -34.641887 -41.515495 11.631455 -23.684844 -11.716509 -24.117481 40.162399 -17.283195 -12.942071 18.779238 -40.879326 -33.010548 48.947722 -39.193526 -17.086162 10.910820 -9.914703 
0.853780 0.729310 0.954145 -83.864800 -1.831519 112.537081 4.113806 -0.076580 -18.829759 -11.109857 0.979690 38.304981 1.918844 12.277285 -0.753627 0.000000 -0.000000 0.000000 0.071752 -6.705935 -14.320932 5.354551 -2.511682 34.330285 -0.740409 -15.624463 5.381739 0.000000 -0.000000 0.000000 -1.470292 2.897134 22.290187 -2.160352 -4.523793 -8.945413 4.251638 2.520321 3.141131 -5.836217 1.436123 -15.565117 9.176822 -12.521542 -27.920432 33.270955 -31.706008 -26.169509 22.662661 -27.527917 -40.841903 27.524364 -34.431062 -43.811699 8.765779 -25.705695 -14.879015 -32.566807 34.858734 -19.312280 -10.881485 16.702851 -41.168191 -37.830853 49.811339 -43.755526 -14.041886 12.626832 -11.711231 
0.761679 0.723114 1.005155 -83.289531 -1.828017 114.381860 3.915000 0.313808 -5.775820 -5.248912 -1.158148 15.089493 -5.509671 8.186614 23.827232 0.000000 -0.000000 0.000000 -0.324987 -9.480050 -2.839493 1.969960 -3.595596 13.613976 5.991997 -11.519421 32.849950 0.000000 -0.000000 0.000000 -1.622992 3.648010 9.329485 -1.716342 -4.954074 -5.011185 3.451303 2.588519 -0.342810 -5.455972 0.661519 -4.589301 9.904883 -11.218635 -26.401190 31.552440 -31.318731 -24.352641 21.764229 -28.098642 -35.773223 29.165629 -38.381528 -42.782167 8.781003 -27.139054 -15.242215 -33.198490 32.963900 -15.747554 -13.977281 12.698630 -39.344009 -31.623810 49.324947 -40.359728 -8.125178 13.677318 -7.402932 
0.673164 0.714815 1.048216 -82.478288 -2.400619 115.925756 2.007766 1.174222 0.903592 1.897947 1.513996 2.137319 -5.797427 12.532712 41.139022 0.000000 -0.000000 0.000000 -0.865648 -10.609059 1.623675 -1.662389 -5.266207 8.006505 3.849749 -11.366500 45.282761 0.000000 -0.000000 0.000000 -2.162801 4.178677 -2.895674 -1.674043 -5.558563 1.311230 2.965163 2.636775 -4.993906 -8.967211 -2.580590 9.221351 12.472025 -6.523494 -28.526852 25.818477 -33.031556 -19.498039 23.910279 -25.329535 -32.927310 27.641337 -44.425833 -41.024676 6.683050 -26.601798 -12.754419 -32.432249 31.345306 -11.481547 -18.637904 10.160354 -39.246682 -22.048006 45.168475 -32.153619 -3.487106 13.854695 1.166340 
0.596860 0.706507 1.083935 -81.043829 -3.190274 115.859471 2.259788 -0.121856 1.084419 -0.408570 3.511437 5.455704 -5.407549 12.314033 43.945984 0.000000 -0.000000 0.000000 -2.337932 -9.490915 1.726832 0.478869 -6.829488 14.355753 4.618583 -10.257261 46.368655 0.000000 -0.000000 0.000000 -2.442957 3.551207 -7.638106 -1.460408 -5.683215 3.172834 2.078539 2.448088 -7.365607 -8.493666 -3.978311 11.319847 12.200517 -6.326744 -25.308806 23.083535 -30.241196 -16.867000 22.036515 -26.046440 -30.800449 27.366896 -46.632388 -41.551071 2.734284 -25.889942 -10.821589 -30.752027 28.918312 -9.922627 -18.894210 10.930048 -39.284815 -22.519074 40.173766 -35.075463 -1.009296 13.712769 3.577322 
0.529863 0.702941 1.114532 -78.053533 -4.180498 113.259460 2.192235 -0.284441 2.125604 -0.759318 1.686798 3.278452 -4.284275 12.862806 43.925556 0.000000 -0.000000 0.000000 -2.905664 -9.373975 2.083672 2.496433 -8.632887 19.986641 4.193322 -10.734107 45.557327 0.000000 -0.000000 0.000000 -2.260336 2.529451 -6.775718 -1.553082 -5.346207 3.489930 1.785559 2.804952 -7.077322 -7.788618 -5.734328 11.002254 12.304002 -7.448140 -23.739091 19.959707 -30.999476 -13.833116 18.186229 -23.502114 -28.836048 27.176175 -49.932729 -41.500461 2.620534 -25.470228 -10.571433 -28.457288 29.054522 -7.655941 -15.691886 6.430261 -40.780831 -25.945337 38.863579 -41.037377 -1.747147 14.081491 2.163784 
0.474163 0.701630 1.140766 -75.741813 -3.901483 110.566196 2.412170 1.039049 -0.920812 0.407246 2.925799 2.931675 -1.879987 13.747010 41.301151 0.000000 -0.000000 0.000000 -2.694387 -10.109540 -0.922040 2.964845 -9.536415 25.244445 3.955524 -10.845043 42.155724 0.000000 -0.000000 0.000000 -0.832902 2.052810 -1.860994 -0.934852 -5.281719 0.095821 2.069702 2.695145 -4.578152 -7.354646 -6.929373 8.458280 11.621797 -7.675978 -23.325031 16.822825 -28.918401 -11.905605 10.882851 -22.364850 -25.520666 22.640419 -53.155906 -34.959230 1.100216 -23.114619 -8.741580 -24.427664 27.538001 -6.424638 -14.269242 6.516128 -42.086309 -24.256360 37.436299 -39.914194 -1.052624 12.665664 3.912237 
0.426958 0.700410 1.161575 -75.249032 -3.449151 108.464092 1.534456 1.487400 -6.095216 0.711047 5.296897 2.597302 -0.499756 14.393924 37.600417 0.000000 -0.000000 0.000000 -3.520363 -11.202989 -7.043035 3.053302 -10.118526 28.357553 3.527730 -10.378168 35.902417 0.000000 -0.000000 0.000000 0.599360 2.421108 3.629490 -0.641977 -5.158400 -1.920182 2.429476 2.356871 -2.778364 -6.656348 -8.113412 5.352885 10.833966 -6.966249 -22.085019 13.017363 -27.402333 -10.250102 3.284097 -23.090817 -20.027667 15.326191 -53.287181 -25.982444 1.868466 -22.459717 -8.717889 -20.254452 26.470004 -5.138776 -11.976193 8.765559 -40.573241 -19.845508 34.908870 -36.066257 -1.930932 12.489428 6.692025 
0.385869 0.701346 1.175324 -75.680002 -3.073436 107.186110 0.254065 0.989745 -13.521084 0.468235 7.132167 2.683034 -0.450135 13.411186 34.077893 0.000000 -0.000000 0.000000 -3.987639 -11.411434 -16.129773 2.914482 -10.071806 28.645220 3.349349 -9.774665 29.230914 0.000000 -0.000000 0.000000 1.963198 2.362401 9.318776 -0.527764 -4.984131 -1.354511 2.538391 2.381308 -3.282694 -6.295823 -9.205785 2.669025 10.632462 -5.932006 -21.224144 8.573869 -27.410999 -7.804819 -4.982196 -23.015971 -12.603411 10.156588 -52.273525 -17.004946 1.151839 -21.716221 -7.975042 -16.217572 27.124533 -3.282436 -7.747351 12.516516 -36.627302 -16.731428 32.531305 -32.694696 -3.359474 12.299601 5.256714 
0.347105 0.702553 1.178726 -77.386617 -2.460684 105.953540 -0.807851 -0.623702 -21.813623 0.803065 7.354067 3.344796 0.119238 12.094778 30.434384 0.000000 -0.000000 0.000000 -3.881874 -10.024014 -25.437225 2.435324 -9.390891 23.742509 3.825414 -9.648432 27.224387 0.000000 -0.000000 0.000000 3.166184 1.888859 16.441403 -0.776208 -4.733424 -0.838896 2.514085 2.669220 -4.284988 -5.886757 -9.404887 -0.762074 10.529110 -5.280616 -19.941188 3.390530 -28.900828 -4.917912 -12.468687 -21.372207 -5.531375 5.963124 -48.295479 -8.117314 3.119509 -21.051041 -7.004254 -11.181893 30.056101 -0.678415 -2.000008 16.733065 -30.752238 -13.765035 31.267684 -26.607306 -7.122157 12.079941 4.131252 
0.305467 0.701811 1.169212 -80.240666 -1.435186 104.376829 -0.941196 -1.194072 -29.460660 1.158168 9.712505 3.774141 -1.151450 10.865789 27.396998 0.000000 -0.000000 0.000000 -2.934765 -7.757808 -32.852550 1.036269 -9.456694 14.031223 5.712039 -9.281318 28.911998 0.000000 -0.000000 0.000000 3.749845 1.790820 24.049108 -1.205500 -4.140867 0.235281 2.977777 2.925180 -5.344353 -4.695639 -8.192123 -5.483643 9.952978 -5.452229 -18.606563 -2.311231 -29.969040 -2.403387 -20.242462 -18.718700 0.758650 4.797512 -42.106614 -3.374667 2.368340 -21.338635 -5.085938 -4.518290 33.548246 3.098204 2.898694 21.043946 -24.801822 -10.059531 28.230907 -18.830440 -6.456296 11.392953 6.601755 
0.256170 0.699407 1.146154 -83.208918 -0.426526 100.926351 -0.070693 -0.798783 -33.356055 0.805161 13.135199 2.876687 -4.959113 8.739174 26.332462 0.000000 -0.000000 0.000000 -1.504476 -6.062010 -35.801180 -1.654184 -12.892213 2.380144 13.152732 -7.935967 35.006559 0.000000 -0.000000 0.000000 4.503395 1.939090 34.775600 -2.222159 -2.127567 -2.984087 3.481105 2.297802 -2.697646 -5.178148 -10.157733 -12.907409 10.731170 -3.864824 -15.718781 -7.102418 -23.931226 -2.745821 -29.519172 -20.503525 6.037295 0.117159 -35.115890 4.500304 2.262027 -21.825180 0.895841 0.963292 31.215176 1.292969 15.244776 27.294700 -11.017684 -12.547707 24.455697 -13.555794 -5.867506 10.709729 7.003260 
0.199301 0.696216 1.106827 -84.924629 -0.475815 98.961193 -0.009067 -1.287751 -36.975407 0.746377 12.819660 1.718068 -7.058688 6.075311 23.782949 0.000000 -0.000000 0.000000 -1.213632 -5.934862 -40.347053 -1.997723 -14.533992 -1.553504 14.346978 -7.450041 33.603331 0.000000 -0.000000 0.000000 3.466684 2.593483 40.120396 -2.074627 -0.925336 -2.432077 3.767939 2.835834 -2.137857 -5.005055 -8.706387 -15.259110 10.487121 -5.984432 -16.752051 -13.859108 -19.107283 0.411064 -35.466984 -15.079642 9.762603 -4.530396 -32.633865 12.271957 -0.030314 -21.069574 5.068901 10.359605 27.935532 5.013124 24.096233 25.256505 -5.113722 -13.829979 24.314623 -12.209278 -5.853932 9.634270 10.676273 
